# xmcd CD database file
#
# Track frame offsets:
#	150
#	16681
#	41041
#	59416
#	79839
#	101199
#	123994
#	144032
#	170789
#	186702
#	210878
#	231384
#	255773
#	279605
#	310649
#	332402
#
# Disc length: 4668 seconds
#
# Revision: 0
# Processed by: cddbd v1.5.2PL0 Copyright (c) Steve Scherf et al.
# Submitted via: CDex 1.51
#
DISCID=d9123a10
DTITLE=Big Mo And The Full Moon Band - Torn
DYEAR=2006
DGENRE=Blues
TTITLE0=Momma&Daddy
TTITLE1=Talkin About It
TTITLE2=Torn
TTITLE3=B-Boy
TTITLE4=Trouble
TTITLE5=Roll Down My Sleeves
TTITLE6=Mobilly
TTITLE7=You Know Me
TTITLE8=Just For Fun
TTITLE9=New Orleans
TTITLE10=Try To Do It All
TTITLE11=Mistaken
TTITLE12=Your Choice
TTITLE13=Under The Lights
TTITLE14=Shine
TTITLE15=Think I Found Heaven Remix
EXTD=YEAR: 2006
EXTT0=
EXTT1=
EXTT2=
EXTT3=
EXTT4=
EXTT5=
EXTT6=
EXTT7=
EXTT8=
EXTT9=
EXTT10=
EXTT11=
EXTT12=
EXTT13=
EXTT14=
EXTT15=
PLAYORDER=
